# xmcd
#
# Track frame offsets: 
#        150
#        12287
#        22789
#        34402
#        52862
#        65509
#        77774
#        91616
#        103583
#        117261
#        130111
#        143345
#        155595
#        167816
#        180209
#        195112
#        208173
#        223854
#        236514
#        249768
#        269518
#        280542
#        294938
#        307364
#
# Disc length: 4261 seconds
#
# Revision: 1
# Processed by: cddbd v1.5.2PL0 Copyright (c) Steve Scherf et al.
# Submitted via: ExactAudioCopyFreeDBPlugin 1.0
#
DISCID=3d10a318
DTITLE=George Jackson - The Fame Recordings
DYEAR=2011
DGENRE=Soul
TTITLE0=Search Your Heart
TTITLE1=I Can't Do Without You
TTITLE2=Greedy Over You
TTITLE3=3-F Blues (Find 'Em, Fool 'Em and Forget 'Em)
TTITLE4=Getting the Bills (But No Merchandise)
TTITLE5=Let's Stop Hurting Each Other
TTITLE6=Bite the Hand That Feeds You
TTITLE7=I Can't Leave Your Love Alone
TTITLE8=I Want You So Bad
TTITLE9=Stuck on Her
TTITLE10=Don't Count Me Out
TTITLE11=You Can't Make it No Better
TTITLE12=Talking in Your Sleep
TTITLE13=Statue of Soul
TTITLE14=The Feeling is Right
TTITLE15=Greasy Two By Four
TTITLE16=You're at the Right Table
TTITLE17=Let's Make it a Deal
TTITLE18=Back in Your Arms
TTITLE19=Love Without a Future
TTITLE20=She's Rated G
TTITLE21=You're Gonna Need Me Again
TTITLE22=Evidence
TTITLE23=I Can't Love Without You
EXTD=
EXTT0=
EXTT1=
EXTT2=
EXTT3=
EXTT4=
EXTT5=
EXTT6=
EXTT7=
EXTT8=
EXTT9=
EXTT10=
EXTT11=
EXTT12=
EXTT13=
EXTT14=
EXTT15=
EXTT16=
EXTT17=
EXTT18=
EXTT19=
EXTT20=
EXTT21=
EXTT22=
EXTT23=
PLAYORDER=
